<svg width="23" height="25" viewBox="0 0 23 25" fill="none" xmlns="http://www.w3.org/2000/svg">
<g clip-path="url(#clip0_5467_360)">
<rect x="1" y="16" width="18" height="8" fill="#F5FCD9"/>
<rect x="1" y="9" width="18" height="8" fill="#F5FCD9"/>
<rect x="1" y="2" width="14" height="8" fill="#F5FCD9"/>
<path d="M6.3111 22.5706C6.56037 22.3101 6.97375 22.3009 7.23424 22.5502C7.49471 22.7994 7.50357 23.2128 7.25432 23.4733L6.1004 24.6789C5.85634 24.9396 5.5188 25.0008 5.29711 25.0008C5.07401 25.0008 4.74032 24.9391 4.49638 24.6843H4.49606L3.33736 23.4733C3.08812 23.2128 3.09727 22.7994 3.35776 22.5502C3.61826 22.3009 4.03164 22.3101 4.2809 22.5706L5.29584 23.6314L6.3111 22.5706Z" fill="white"/>
<path d="M6.3111 22.5706C6.56037 22.3101 6.97375 22.3009 7.23424 22.5502C7.49471 22.7994 7.50357 23.2128 7.25432 23.4733L6.1004 24.6789C5.85634 24.9396 5.5188 25.0008 5.29711 25.0008C5.07401 25.0008 4.74032 24.9391 4.49638 24.6843H4.49606L3.33736 23.4733C3.08812 23.2128 3.09727 22.7994 3.35776 22.5502C3.61826 22.3009 4.03164 22.3101 4.2809 22.5706L5.29584 23.6314L6.3111 22.5706Z" fill="#0B2828" fill-opacity="0.8"/>
<path d="M3.36335 22.5706C3.61261 22.3101 4.02599 22.3009 4.28648 22.5502C4.54695 22.7994 4.55582 23.2128 4.30656 23.4733L3.15264 24.6789C2.90859 24.9396 2.57105 25.0008 2.34936 25.0008C2.12625 25.0008 1.79257 24.9391 1.54863 24.6843H1.54831L0.389604 23.4733C0.140367 23.2128 0.149515 22.7994 0.410005 22.5502C0.670507 22.3009 1.08389 22.3101 1.33314 22.5706L2.34808 23.6314L3.36335 22.5706Z" fill="white"/>
<path d="M3.36335 22.5706C3.61261 22.3101 4.02599 22.3009 4.28648 22.5502C4.54695 22.7994 4.55582 23.2128 4.30656 23.4733L3.15264 24.6789C2.90859 24.9396 2.57105 25.0008 2.34936 25.0008C2.12625 25.0008 1.79257 24.9391 1.54863 24.6843H1.54831L0.389604 23.4733C0.140367 23.2128 0.149515 22.7994 0.410005 22.5502C0.670507 22.3009 1.08389 22.3101 1.33314 22.5706L2.34808 23.6314L3.36335 22.5706Z" fill="#0B2828" fill-opacity="0.8"/>
<path d="M9.34333 22.5706C9.59259 22.3101 10.006 22.3009 10.2665 22.5502C10.5269 22.7994 10.5358 23.2128 10.2865 23.4733L9.13262 24.6789C8.88857 24.9396 8.55103 25.0008 8.32934 25.0008C8.10623 25.0008 7.77255 24.9391 7.52861 24.6843H7.52829L6.36958 23.4733C6.12035 23.2128 6.1295 22.7994 6.38999 22.5502C6.65049 22.3009 7.06387 22.3101 7.31312 22.5706L8.32806 23.6314L9.34333 22.5706Z" fill="white"/>
<path d="M9.34333 22.5706C9.59259 22.3101 10.006 22.3009 10.2665 22.5502C10.5269 22.7994 10.5358 23.2128 10.2865 23.4733L9.13262 24.6789C8.88857 24.9396 8.55103 25.0008 8.32934 25.0008C8.10623 25.0008 7.77255 24.9391 7.52861 24.6843H7.52829L6.36958 23.4733C6.12035 23.2128 6.1295 22.7994 6.38999 22.5502C6.65049 22.3009 7.06387 22.3101 7.31312 22.5706L8.32806 23.6314L9.34333 22.5706Z" fill="#0B2828" fill-opacity="0.8"/>
<path d="M15.2974 22.5706C15.5467 22.3101 15.9601 22.3009 16.2206 22.5502C16.481 22.7994 16.4899 23.2128 16.2406 23.4733L15.0867 24.6789C14.8427 24.9396 14.5051 25.0008 14.2834 25.0008C14.0603 25.0008 13.7267 24.9391 13.4827 24.6843H13.4824L12.3237 23.4733C12.0744 23.2128 12.0836 22.7994 12.3441 22.5502C12.6046 22.3009 13.018 22.3101 13.2672 22.5706L14.2822 23.6314L15.2974 22.5706Z" fill="white"/>
<path d="M15.2974 22.5706C15.5467 22.3101 15.9601 22.3009 16.2206 22.5502C16.481 22.7994 16.4899 23.2128 16.2406 23.4733L15.0867 24.6789C14.8427 24.9396 14.5051 25.0008 14.2834 25.0008C14.0603 25.0008 13.7267 24.9391 13.4827 24.6843H13.4824L12.3237 23.4733C12.0744 23.2128 12.0836 22.7994 12.3441 22.5502C12.6046 22.3009 13.018 22.3101 13.2672 22.5706L14.2822 23.6314L15.2974 22.5706Z" fill="#0B2828" fill-opacity="0.8"/>
<path d="M12.3497 22.5706C12.5989 22.3101 13.0123 22.3009 13.2728 22.5502C13.5333 22.7994 13.5421 23.2128 13.2929 23.4733L12.139 24.6789C11.8949 24.9396 11.5574 25.0008 11.3357 25.0008C11.1126 25.0008 10.7789 24.9391 10.535 24.6843H10.5346L9.37593 23.4733C9.12669 23.2128 9.13584 22.7994 9.39633 22.5502C9.65683 22.3009 10.0702 22.3101 10.3195 22.5706L11.3344 23.6314L12.3497 22.5706Z" fill="white"/>
<path d="M12.3497 22.5706C12.5989 22.3101 13.0123 22.3009 13.2728 22.5502C13.5333 22.7994 13.5421 23.2128 13.2929 23.4733L12.139 24.6789C11.8949 24.9396 11.5574 25.0008 11.3357 25.0008C11.1126 25.0008 10.7789 24.9391 10.535 24.6843H10.5346L9.37593 23.4733C9.12669 23.2128 9.13584 22.7994 9.39633 22.5502C9.65683 22.3009 10.0702 22.3101 10.3195 22.5706L11.3344 23.6314L12.3497 22.5706Z" fill="#0B2828" fill-opacity="0.8"/>
<path d="M18.3262 22.5706C18.5755 22.3101 18.9889 22.3009 19.2494 22.5502C19.5098 22.7994 19.5187 23.2128 19.2695 23.4733L18.1155 24.6789C17.8715 24.9396 17.5339 25.0008 17.3123 25.0008C17.0891 25.0008 16.7555 24.9391 16.5115 24.6843H16.5112L15.3525 23.4733C15.1033 23.2128 15.1124 22.7994 15.3729 22.5502C15.6334 22.3009 16.0468 22.3101 16.296 22.5706L17.311 23.6314L18.3262 22.5706Z" fill="white"/>
<path d="M18.3262 22.5706C18.5755 22.3101 18.9889 22.3009 19.2494 22.5502C19.5098 22.7994 19.5187 23.2128 19.2695 23.4733L18.1155 24.6789C17.8715 24.9396 17.5339 25.0008 17.3123 25.0008C17.0891 25.0008 16.7555 24.9391 16.5115 24.6843H16.5112L15.3525 23.4733C15.1033 23.2128 15.1124 22.7994 15.3729 22.5502C15.6334 22.3009 16.0468 22.3101 16.296 22.5706L17.311 23.6314L18.3262 22.5706Z" fill="#0B2828" fill-opacity="0.8"/>
<path d="M15.1259 15.2762H8.29736C7.9383 15.2762 7.64453 15.5699 7.64453 15.929C7.64453 16.288 7.9383 16.5818 8.29736 16.5818H15.1259C15.485 16.5818 15.7788 16.288 15.7788 15.929C15.7788 15.5699 15.485 15.2762 15.1259 15.2762Z" fill="white"/>
<path d="M15.1259 15.2762H8.29736C7.9383 15.2762 7.64453 15.5699 7.64453 15.929C7.64453 16.288 7.9383 16.5818 8.29736 16.5818H15.1259C15.485 16.5818 15.7788 16.288 15.7788 15.929C15.7788 15.5699 15.485 15.2762 15.1259 15.2762Z" fill="#0B2828" fill-opacity="0.8"/>
<path d="M15.1259 18.5566H8.29736C7.9383 18.5566 7.64453 18.8504 7.64453 19.2094C7.64453 19.5685 7.9383 19.8622 8.29736 19.8622H15.1259C15.485 19.8622 15.7788 19.5685 15.7788 19.2094C15.7788 18.8504 15.485 18.5566 15.1259 18.5566Z" fill="white"/>
<path d="M15.1259 18.5566H8.29736C7.9383 18.5566 7.64453 18.8504 7.64453 19.2094C7.64453 19.5685 7.9383 19.8622 8.29736 19.8622H15.1259C15.485 19.8622 15.7788 19.5685 15.7788 19.2094C15.7788 18.8504 15.485 18.5566 15.1259 18.5566Z" fill="#0B2828" fill-opacity="0.8"/>
<path d="M5.36959 5.43481H4.01171C3.65266 5.43481 3.35889 5.72859 3.35889 6.08764C3.35889 6.4467 3.65266 6.74047 4.01171 6.74047H5.36959C5.72865 6.74047 6.02242 6.4467 6.02242 6.08764C6.02242 5.72859 5.72865 5.43481 5.36959 5.43481Z" fill="white"/>
<path d="M5.36959 5.43481H4.01171C3.65266 5.43481 3.35889 5.72859 3.35889 6.08764C3.35889 6.4467 3.65266 6.74047 4.01171 6.74047H5.36959C5.72865 6.74047 6.02242 6.4467 6.02242 6.08764C6.02242 5.72859 5.72865 5.43481 5.36959 5.43481Z" fill="#0B2828" fill-opacity="0.8"/>
<path d="M5.36959 8.71524H4.01171C3.65266 8.71524 3.35889 9.00901 3.35889 9.36807C3.35889 9.72712 3.65266 10.0209 4.01171 10.0209H5.36959C5.72865 10.0209 6.02242 9.72712 6.02242 9.36807C6.02242 9.00901 5.72865 8.71524 5.36959 8.71524Z" fill="white"/>
<path d="M5.36959 8.71524H4.01171C3.65266 8.71524 3.35889 9.00901 3.35889 9.36807C3.35889 9.72712 3.65266 10.0209 4.01171 10.0209H5.36959C5.72865 10.0209 6.02242 9.72712 6.02242 9.36807C6.02242 9.00901 5.72865 8.71524 5.36959 8.71524Z" fill="#0B2828" fill-opacity="0.8"/>
<path d="M5.36959 11.9957H4.01171C3.65266 11.9957 3.35889 12.2895 3.35889 12.6485C3.35889 13.0076 3.65266 13.3014 4.01171 13.3014H5.36959C5.72865 13.3014 6.02242 13.0076 6.02242 12.6485C6.02242 12.2895 5.72865 11.9957 5.36959 11.9957Z" fill="white"/>
<path d="M5.36959 11.9957H4.01171C3.65266 11.9957 3.35889 12.2895 3.35889 12.6485C3.35889 13.0076 3.65266 13.3014 4.01171 13.3014H5.36959C5.72865 13.3014 6.02242 13.0076 6.02242 12.6485C6.02242 12.2895 5.72865 11.9957 5.36959 11.9957Z" fill="#0B2828" fill-opacity="0.8"/>
<path d="M5.36959 15.2762H4.01171C3.65266 15.2762 3.35889 15.5699 3.35889 15.929C3.35889 16.288 3.65266 16.5818 4.01171 16.5818H5.36959C5.72865 16.5818 6.02242 16.288 6.02242 15.929C6.02242 15.5699 5.72865 15.2762 5.36959 15.2762Z" fill="white"/>
<path d="M5.36959 15.2762H4.01171C3.65266 15.2762 3.35889 15.5699 3.35889 15.929C3.35889 16.288 3.65266 16.5818 4.01171 16.5818H5.36959C5.72865 16.5818 6.02242 16.288 6.02242 15.929C6.02242 15.5699 5.72865 15.2762 5.36959 15.2762Z" fill="#0B2828" fill-opacity="0.8"/>
<path d="M5.36959 18.5566H4.01171C3.65266 18.5566 3.35889 18.8504 3.35889 19.2094C3.35889 19.5685 3.65266 19.8622 4.01171 19.8622H5.36959C5.72865 19.8622 6.02242 19.5685 6.02242 19.2094C6.02242 18.8504 5.72865 18.5566 5.36959 18.5566Z" fill="white"/>
<path d="M5.36959 18.5566H4.01171C3.65266 18.5566 3.35889 18.8504 3.35889 19.2094C3.35889 19.5685 3.65266 19.8622 4.01171 19.8622H5.36959C5.72865 19.8622 6.02242 19.5685 6.02242 19.2094C6.02242 18.8504 5.72865 18.5566 5.36959 18.5566Z" fill="#0B2828" fill-opacity="0.8"/>
<path d="M18.8633 15.1717C18.5042 15.1717 18.2104 15.4655 18.2104 15.8245V22.8816C18.2104 23.2406 18.5042 23.5344 18.8633 23.5344C19.2223 23.5344 19.5161 23.2406 19.5161 22.8816V15.8245C19.5161 15.4655 19.2223 15.1717 18.8633 15.1717Z" fill="white"/>
<path d="M18.8633 15.1717C18.5042 15.1717 18.2104 15.4655 18.2104 15.8245V22.8816C18.2104 23.2406 18.5042 23.5344 18.8633 23.5344C19.2223 23.5344 19.5161 23.2406 19.5161 22.8816V15.8245C19.5161 15.4655 19.2223 15.1717 18.8633 15.1717Z" fill="#0B2828" fill-opacity="0.8"/>
<path d="M10.3832 1.68756C10.3832 1.3285 10.0894 1.03473 9.73038 1.03473H2.7484C1.12939 1.03473 0 2.03029 0 3.45672V22.7282C0 23.0872 0.293772 23.381 0.652827 23.381C1.01188 23.381 1.30565 23.0872 1.30565 22.7282V3.45672C1.30565 2.42199 2.40893 2.34038 2.7484 2.34038H9.73365C10.0927 2.34038 10.3865 2.04661 10.3865 1.68756H10.3832Z" fill="white"/>
<path d="M10.3832 1.68756C10.3832 1.3285 10.0894 1.03473 9.73038 1.03473H2.7484C1.12939 1.03473 0 2.03029 0 3.45672V22.7282C0 23.0872 0.293772 23.381 0.652827 23.381C1.01188 23.381 1.30565 23.0872 1.30565 22.7282V3.45672C1.30565 2.42199 2.40893 2.34038 2.7484 2.34038H9.73365C10.0927 2.34038 10.3865 2.04661 10.3865 1.68756H10.3832Z" fill="#0B2828" fill-opacity="0.8"/>
<path d="M12.8505 1.12603C13.7187 -0.376199 15.8871 -0.376199 16.7553 1.12603H16.7556L17.937 3.17281C18.1172 3.48502 18.0104 3.88409 17.6982 4.06439C17.386 4.24466 16.9866 4.13787 16.8063 3.82564L15.6247 1.77886V1.77854C15.2588 1.14668 14.3463 1.14692 13.9808 1.77918L13.9805 1.77886L8.48086 11.3038V11.3041C8.11573 11.936 8.57148 12.7268 9.30295 12.7268H20.3028C21.0343 12.7268 21.49 11.936 21.1249 11.3041V11.3035L18.3176 6.44013C18.1373 6.12787 18.2444 5.72847 18.5566 5.54823C18.8689 5.36801 19.2683 5.47507 19.4485 5.78731L22.2553 10.6507L22.2948 10.7214C23.0899 12.2118 22.0118 14.0324 20.3028 14.0324H9.30295C7.5668 14.0324 6.48167 12.1535 7.35021 10.6507H7.35053L12.8501 1.12603H12.8505Z" fill="white"/>
<path d="M12.8505 1.12603C13.7187 -0.376199 15.8871 -0.376199 16.7553 1.12603H16.7556L17.937 3.17281C18.1172 3.48502 18.0104 3.88409 17.6982 4.06439C17.386 4.24466 16.9866 4.13787 16.8063 3.82564L15.6247 1.77886V1.77854C15.2588 1.14668 14.3463 1.14692 13.9808 1.77918L13.9805 1.77886L8.48086 11.3038V11.3041C8.11573 11.936 8.57148 12.7268 9.30295 12.7268H20.3028C21.0343 12.7268 21.49 11.936 21.1249 11.3041V11.3035L18.3176 6.44013C18.1373 6.12787 18.2444 5.72847 18.5566 5.54823C18.8689 5.36801 19.2683 5.47507 19.4485 5.78731L22.2553 10.6507L22.2948 10.7214C23.0899 12.2118 22.0118 14.0324 20.3028 14.0324H9.30295C7.5668 14.0324 6.48167 12.1535 7.35021 10.6507H7.35053L12.8501 1.12603H12.8505Z" fill="#0B2828" fill-opacity="0.8"/>
<path d="M17.3717 3.49918L16.1901 1.45257C15.5731 0.385196 14.0325 0.385196 13.4156 1.45257L7.91549 10.9773C7.29857 12.0447 8.0689 13.3797 9.30275 13.3797H20.3029C21.5367 13.3797 22.3071 12.0447 21.6901 10.9773L18.883 6.11375" fill="white"/>
<path d="M17.3717 3.49918L16.1901 1.45257C15.5731 0.385196 14.0325 0.385196 13.4156 1.45257L7.91549 10.9773C7.29857 12.0447 8.0689 13.3797 9.30275 13.3797H20.3029C21.5367 13.3797 22.3071 12.0447 21.6901 10.9773L18.883 6.11375" fill="#BBEE00" fill-opacity="0.5"/>
<path d="M12.8505 1.12603C13.7187 -0.376199 15.8871 -0.376199 16.7553 1.12603H16.7556L17.937 3.17281C18.1172 3.48502 18.0104 3.88409 17.6982 4.06439C17.386 4.24466 16.9866 4.13787 16.8063 3.82564L15.6247 1.77886V1.77854C15.2588 1.14668 14.3463 1.14692 13.9808 1.77918L13.9805 1.77886L8.48086 11.3038V11.3041C8.11573 11.936 8.57148 12.7268 9.30295 12.7268H20.3028C21.0343 12.7268 21.49 11.936 21.1249 11.3041V11.3035L18.3176 6.44013C18.1373 6.12787 18.2444 5.72847 18.5566 5.54823C18.8689 5.36801 19.2683 5.47507 19.4485 5.78731L22.2553 10.6507L22.2948 10.7214C23.0899 12.2118 22.0118 14.0324 20.3028 14.0324H9.30295C7.5668 14.0324 6.48167 12.1535 7.35021 10.6507H7.35053L12.8501 1.12603H12.8505Z" fill="white"/>
<path d="M12.8505 1.12603C13.7187 -0.376199 15.8871 -0.376199 16.7553 1.12603H16.7556L17.937 3.17281C18.1172 3.48502 18.0104 3.88409 17.6982 4.06439C17.386 4.24466 16.9866 4.13787 16.8063 3.82564L15.6247 1.77886V1.77854C15.2588 1.14668 14.3463 1.14692 13.9808 1.77918L13.9805 1.77886L8.48086 11.3038V11.3041C8.11573 11.936 8.57148 12.7268 9.30295 12.7268H20.3028C21.0343 12.7268 21.49 11.936 21.1249 11.3041V11.3035L18.3176 6.44013C18.1373 6.12787 18.2444 5.72847 18.5566 5.54823C18.8689 5.36801 19.2683 5.47507 19.4485 5.78731L22.2553 10.6507L22.2948 10.7214C23.0899 12.2118 22.0118 14.0324 20.3028 14.0324H9.30295C7.5668 14.0324 6.48167 12.1535 7.35021 10.6507H7.35053L12.8501 1.12603H12.8505Z" fill="#BBEE00" fill-opacity="0.5"/>
<path d="M12.8505 1.12603C13.7187 -0.376199 15.8871 -0.376199 16.7553 1.12603H16.7556L17.937 3.17281C18.1172 3.48502 18.0104 3.88409 17.6982 4.06439C17.386 4.24466 16.9866 4.13787 16.8063 3.82564L15.6247 1.77886V1.77854C15.2588 1.14668 14.3463 1.14692 13.9808 1.77918L13.9805 1.77886L8.48086 11.3038V11.3041C8.11573 11.936 8.57148 12.7268 9.30295 12.7268H20.3028C21.0343 12.7268 21.49 11.936 21.1249 11.3041V11.3035L18.3176 6.44013C18.1373 6.12787 18.2444 5.72847 18.5566 5.54823C18.8689 5.36801 19.2683 5.47507 19.4485 5.78731L22.2553 10.6507L22.2948 10.7214C23.0899 12.2118 22.0118 14.0324 20.3028 14.0324H9.30295C7.5668 14.0324 6.48167 12.1535 7.35021 10.6507H7.35053L12.8501 1.12603H12.8505Z" fill="white"/>
<path d="M12.8505 1.12603C13.7187 -0.376199 15.8871 -0.376199 16.7553 1.12603H16.7556L17.937 3.17281C18.1172 3.48502 18.0104 3.88409 17.6982 4.06439C17.386 4.24466 16.9866 4.13787 16.8063 3.82564L15.6247 1.77886V1.77854C15.2588 1.14668 14.3463 1.14692 13.9808 1.77918L13.9805 1.77886L8.48086 11.3038V11.3041C8.11573 11.936 8.57148 12.7268 9.30295 12.7268H20.3028C21.0343 12.7268 21.49 11.936 21.1249 11.3041V11.3035L18.3176 6.44013C18.1373 6.12787 18.2444 5.72847 18.5566 5.54823C18.8689 5.36801 19.2683 5.47507 19.4485 5.78731L22.2553 10.6507L22.2948 10.7214C23.0899 12.2118 22.0118 14.0324 20.3028 14.0324H9.30295C7.5668 14.0324 6.48167 12.1535 7.35021 10.6507H7.35053L12.8501 1.12603H12.8505Z" fill="#0B2828" fill-opacity="0.8"/>
<path d="M14.1499 8.30065V4.59918C14.1499 4.23863 14.4422 3.94635 14.8027 3.94635C15.1633 3.94635 15.4556 4.23863 15.4556 4.59918V8.30065C15.4556 8.6612 15.1633 8.95348 14.8027 8.95348C14.4422 8.95348 14.1499 8.6612 14.1499 8.30065Z" fill="white"/>
<path d="M14.1499 8.30065V4.59918C14.1499 4.23863 14.4422 3.94635 14.8027 3.94635C15.1633 3.94635 15.4556 4.23863 15.4556 4.59918V8.30065C15.4556 8.6612 15.1633 8.95348 14.8027 8.95348C14.4422 8.95348 14.1499 8.6612 14.1499 8.30065Z" fill="#0B2828" fill-opacity="0.8"/>
<path d="M14.1499 10.4583V10.1612C14.1499 9.8007 14.4422 9.50842 14.8027 9.50842C15.1633 9.50842 15.4556 9.8007 15.4556 10.1612V10.4583C15.4555 10.8189 15.1633 11.1112 14.8027 11.1112C14.4422 11.1112 14.1499 10.8189 14.1499 10.4583Z" fill="white"/>
<path d="M14.1499 10.4583V10.1612C14.1499 9.8007 14.4422 9.50842 14.8027 9.50842C15.1633 9.50842 15.4556 9.8007 15.4556 10.1612V10.4583C15.4555 10.8189 15.1633 11.1112 14.8027 11.1112C14.4422 11.1112 14.1499 10.8189 14.1499 10.4583Z" fill="#0B2828" fill-opacity="0.8"/>
</g>
<defs>
<clipPath id="clip0_5467_360">
<rect width="22.5584" height="25" fill="white"/>
</clipPath>
</defs>
</svg>
